<svg xmlns="http://www.w3.org/2000/svg" viewBox="0 0 1200 120" preserveAspectRatio="true">
  <rect x="0" y="-550" width="1200" height="200" style="fill: black; stroke: none" />
  <path transform="matrix(-1,0,0,-1,1439.9,785.8)"
    d="M 37 1148 C 37 1148 37 588 37 588 C 76.2 606.5 115.3 625 153 611 C 190.7 597 226.8 550.6 261 543 C 295.2 535.4 327.4 566.7 354 590 C 380.6 613.3 401.5 628.6 435 629 C 468.5 629.4 514.4 615 551 603 C 587.6 591 614.8 581.3 644 567 C 673.2 552.7 704.2 533.7 744 548 C 783.8 562.3 832.2 609.7 867 603 C 901.8 596.3 922.9 535.4 953 542 C 983.1 548.6 1022 622.7 1064 637 C 1106 651.3 1150.9 605.9 1180 602 C 1209.1 598.1 1222.3 635.7 1252 632 C 1281.7 628.3 1327.8 583.2 1368 569 C 1408.2 554.8 1442.6 571.4 1477 588 C 1477 588 1477 1148 1477 1148 Z"
    stroke="none" stroke-width="0" fill="#00000044" class="transition-all duration-300 ease-in-out delay-150"></path>
  <path transform="matrix(-1,0,0,-1,1440,925.3)"
    d="M 6 1286 C 6 1286 6 866 6 866 C 38.9 838.7 71.8 811.5 105 822 C 138.2 832.5 171.8 880.9 210 895 C 248.2 909.1 291 889 323 887 C 355 885 376.1 901.3 405 906 C 433.9 910.7 470.8 903.9 513 890 C 555.2 876.1 602.9 855.2 635 863 C 667.1 870.8 683.6 907.3 715 915 C 746.4 922.7 792.7 901.8 833 880 C 873.3 858.2 907.6 835.7 937 824 C 966.4 812.3 991 811.3 1029 837 C 1067 862.7 1118.5 914.9 1153 913 C 1187.5 911.1 1205.2 855.1 1234 838 C 1262.8 820.9 1302.8 842.8 1340 854 C 1377.2 865.2 1411.6 865.6 1446 866 C 1446 866 1446 1286 1446 1286 Z"
    stroke="none" stroke-width="0" fill="#00000066" class="transition-all duration-300 ease-in-out delay-150"></path>
  <path transform="matrix(-1,0,0,-1,1439.9,1049.8)"
    d="M 242 1400 C 242 1400 242 1120 242 1120 C 279.7 1142.2 317.4 1164.5 352 1150 C 386.6 1135.5 418.1 1084.3 451 1067 C 483.9 1049.7 518.2 1066.1 555 1068 C 591.8 1069.9 631.2 1057.1 666 1074 C 700.8 1090.9 731.1 1137.5 765 1156 C 798.9 1174.5 836.4 1164.8 863 1156 C 889.6 1147.2 905.4 1139.3 943 1117 C 980.6 1094.7 1040.2 1058.2 1081 1075 C 1121.8 1091.8 1143.9 1162.1 1172 1167 C 1200.1 1171.9 1234.1 1111.5 1269 1094 C 1303.9 1076.5 1339.5 1101.8 1374 1101 C 1408.5 1100.2 1441.7 1073.1 1472 1076 C 1502.3 1078.9 1529.5 1111.7 1564 1124 C 1598.5 1136.3 1640.2 1128.2 1682 1120 C 1682 1120 1682 1400 1682 1400 Z"
    stroke="none" stroke-width="0" fill="#00000088" class="transition-all duration-300 ease-in-out delay-150"></path>
  <path transform="matrix(-1,0,0,-1,1568,1061)"
    d="M 368 1421 C 368 1421 368 1281 368 1281 C 392 1290.3 416 1299.7 456 1291 C 496 1282.3 551.9 1255.6 592 1254 C 632.1 1252.4 656.5 1276 681 1284 C 705.5 1292 730.2 1284.3 765 1294 C 799.8 1303.7 844.7 1330.9 883 1322 C 921.3 1313.1 953 1268 987 1249 C 1021 1230 1057.3 1237.2 1094 1254 C 1130.7 1270.8 1167.9 1297.1 1196 1289 C 1224.1 1280.9 1243 1238.4 1279 1244 C 1315 1249.6 1368.2 1303.2 1410 1322 C 1451.8 1340.8 1482.3 1324.7 1515 1315 C 1547.7 1305.3 1582.6 1302.1 1610 1308 C 1637.4 1313.9 1657.3 1329 1689 1326 C 1720.7 1323 1764.4 1302 1808 1281 C 1808 1281 1808 1421 1808 1421 Z"
    stroke="none" stroke-width="0" fill="#000000ff" class="transition-all duration-300 ease-in-out delay-150"></path>
</svg>
