<svg xmlns="http://www.w3.org/2000/svg" viewBox="0 0 1200 120" preserveAspectRatio="true">
  <rect x="0" y="-473" width="1200" height="480" style="fill: black; stroke: none" />
  <path
    d="M -14 30 V 76.3 c 47.8 22.2 103.6 32.2 158 28 c 70.4 -5.4 136.3 -33.3 206.8 -37.5 C 424.6 62.4 498.3 83.7 569 102 c 69.3 18 138.3 24.9 209.4 13.1 c 36.1 -6 69.9 -17.8 104.5 -29.3 C 975.5 55 1099 15.7 1186 82.5 V 30 Z"
    style="fill: black" opacity=".25"></path>
  <path
    d="M -7 12 V 27.8 C 6 48.9 20.6 68.9 40.7 84.1 C 92.4 123.3 158 123 217.6 103.6 c 31.2 -10.2 60.1 -26.1 89.7 -39.8 c 40.9 -19 84.7 -46 130.8 -49.7 c 36.3 -2.9 70.9 9.4 98.6 31.6 c 31.8 25.4 62.3 62 103.6 73 c 40.4 10.8 81.4 -6.7 119.1 -24.3 s 75.2 -39 116.9 -43.1 c 59.7 -5.8 113.3 22.9 168.9 38.8 c 30.2 8.7 59 6.2 87.1 -7.5 c 22.4 -10.9 48 -26.9 60.7 -49.2 V 12 Z"
    opacity=".5" style="fill: black"></path>
  <path
    d="M -1 5 V 10.6 C 148.9 64 313.1 76.3 474.8 47.6 c 43 -7.6 84.2 -20.1 127.6 -26.5 c 59 -8.6 112.5 12.2 165.6 35.4 C 826.9 82.2 885 100.2 950.2 95 c 86.5 -7 172.5 -45.7 248.8 -84.8 V 5 Z"
    style="fill: black"></path>
</svg>
